<?xml version="1.0" encoding="utf-8"?>
<!-- Generator: Adobe Illustrator 23.0.5, SVG Export Plug-In . SVG Version: 6.00 Build 0)  -->
<svg version="1.1" id="Слой_1" xmlns="http://www.w3.org/2000/svg" xmlns:xlink="http://www.w3.org/1999/xlink" x="0px" y="0px"
	 viewBox="0 0 16 13.5" style="enable-background:new 0 0 16 13.5;" xml:space="preserve">
<style type="text/css">
	.st0{fill:none;stroke:#5B5B5F;stroke-width:0.5;stroke-miterlimit:10;}
</style>
<g id="XMLID_218_">
	<path id="XMLID_223_" class="st0" d="M2.8,12.8h10.6c1,0,1.8-0.8,1.8-1.8V5.3c0-1-0.8-1.8-1.8-1.8h-1.9c-0.2,0-0.4-0.1-0.5-0.2
		L8.7,1c-0.3-0.3-0.7-0.3-1,0L5.2,3.3C5.1,3.4,4.9,3.5,4.7,3.5H2.8C1.8,3.5,1,4.3,1,5.3V11C1,12,1.8,12.8,2.8,12.8z"/>
	<g id="XMLID_219_">
		<path id="XMLID_221_" class="st0" d="M9.4,6.5c0,0.7-0.6,1.2-1.2,1.2c-0.7,0-1.2-0.5-1.2-1.2c0-0.7,0.6-1.2,1.2-1.2
			C8.8,5.3,9.4,5.8,9.4,6.5z"/>
		<path id="XMLID_27_" class="st0" d="M5.6,12.8v-1.5l0,0C5.6,10,6.6,9,7.9,9h0.4c1.3,0,2.4,1,2.4,2.3l0,0v1.5"/>
	</g>
</g>
</svg>
